<?xml version="1.0" encoding="UTF-8"?> <!-- Generator: Adobe Illustrator 16.0.0, SVG Export Plug-In . SVG Version: 6.00 Build 0) --> <svg xmlns="http://www.w3.org/2000/svg" xmlns:xlink="http://www.w3.org/1999/xlink" id="Layer_1" x="0px" y="0px" width="300px" height="300px" viewBox="0 0 300 300" xml:space="preserve"> <circle fill-rule="evenodd" clip-rule="evenodd" fill="#2F63AF" cx="150" cy="150" r="139.166"></circle> <g> <path fill-rule="evenodd" clip-rule="evenodd" fill="#FFFFFF" d="M114.555,182.24c1.213-4.411,2.361-8.604,3.521-12.791 c2.217-7.995,4.466-15.98,6.635-23.986c0.307-1.13,0.762-1.493,1.943-1.489c20.215,0.08,40.432,0.112,60.646,0.148 c2.324,0.003,1.941,0.094,2.497-1.883c0.987-3.514,1.952-7.034,2.918-10.555c0.106-0.383,0.168-0.779,0.292-1.375 c-21.402,0-42.629,0-64.047,0c0.748-2.759,1.417-5.313,2.138-7.853c0.416-1.466,0.505-3.432,1.496-4.21 c0.939-0.737,2.864-0.248,4.355-0.248c21.799-0.007,43.598-0.01,65.396,0.015c0.934,0.001,1.929,0.115,2.788,0.45 c1.988,0.773,2.919,2.924,2.262,5.342c-2.417,8.885-4.85,17.765-7.382,26.616c-1.081,3.782-4.538,6.062-8.775,6.064 c-11.065,0.007-22.132,0.002-33.197,0.002c-7.446,0-14.893,0.02-22.339-0.021c-1.075-0.005-1.571,0.241-1.879,1.385 c-2.076,7.73-4.269,15.429-6.374,23.151c-0.248,0.915-0.591,1.277-1.58,1.261C122.174,182.204,118.479,182.24,114.555,182.24z"></path> <path fill-rule="evenodd" clip-rule="evenodd" fill="#FFFFFF" d="M59.211,117.995c-4.818,17.361-9.579,34.522-14.407,51.923 c0.679,0,1.118,0,1.558,0c16.22,0,32.44-0.013,48.66,0.027c1.145,0.003,1.555-0.396,1.845-1.448 c4.532-16.43,9.114-32.847,13.647-49.275c0.254-0.923,0.614-1.265,1.592-1.249c3.694,0.057,7.389,0.022,11.26,0.022 c-0.275,1.086-0.495,2.034-0.755,2.971c-5.237,18.856-10.478,37.714-15.722,56.568c-0.876,3.149-2.926,4.703-6.186,4.704 c-21.836,0.003-43.67,0.003-65.506-0.002c-2.852-0.001-4.552-1.326-4.886-3.924c-0.102-0.789,0.083-1.654,0.3-2.439 c5.217-18.865,10.463-37.723,15.669-56.589c0.267-0.963,0.636-1.338,1.685-1.316C51.618,118.038,55.275,117.995,59.211,117.995z"></path> <path fill-rule="evenodd" clip-rule="evenodd" fill="#FFFFFF" d="M242.214,118.088c2.478,4.908,4.8,9.509,7.122,14.108 c0.116-0.007,0.23-0.013,0.348-0.02c1.293-4.628,2.586-9.255,3.946-14.126c5.427,10.791,10.736,21.352,16.089,31.993 c-11.164,10.559-22.298,21.09-33.434,31.621c-0.083-0.046-0.167-0.091-0.25-0.137c1.238-4.513,2.479-9.024,3.719-13.537 c-0.091-0.053-0.182-0.106-0.273-0.158c-4.881,4.605-9.762,9.211-14.644,13.816c-0.079-0.041-0.159-0.083-0.237-0.125 C230.439,160.486,236.281,139.449,242.214,118.088z"></path> <path fill-rule="evenodd" clip-rule="evenodd" fill="#FFFFFF" d="M200.947,181.917c0.767-2.807,1.498-5.515,2.247-8.219 c5.061-18.256,10.13-36.509,15.167-54.771c0.238-0.865,0.562-1.207,1.507-1.189c3.367,0.063,6.735,0.022,10.104,0.027 c0.364,0,0.729,0.035,1.241,0.062c-0.775,2.851-1.512,5.6-2.272,8.343c-5.051,18.213-10.113,36.423-15.139,54.643 c-0.241,0.874-0.564,1.208-1.507,1.191c-3.366-0.06-6.734-0.022-10.103-0.025C201.828,181.977,201.462,181.943,200.947,181.917z"></path> </g> </svg> 